<svg xmlns="http://www.w3.org/2000/svg" viewBox="0 0 100.43 100.43"><defs><style>.cls-1,.cls-3{fill:#fff;}.cls-2{fill:#009789;}.cls-3,.cls-4{stroke:#009789;stroke-miterlimit:10;stroke-width:4px;}.cls-4{fill:none;}</style></defs><title>Asset 1</title><g id="Layer_2" data-name="Layer 2"><g id="Layer_1-2" data-name="Layer 1"><circle class="cls-1" cx="36.02" cy="45.94" r="5.67"/><circle class="cls-2" cx="50.21" cy="50.21" r="50.21"/><path class="cls-1" d="M82.44,42.86V49a1.84,1.84,0,0,1-1.84,1.83H80V63.6a3.53,3.53,0,0,1-3.53,3.53H26a3.53,3.53,0,0,1-3.53-3.53V50.86h-.86A1.83,1.83,0,0,1,19.78,49V42.86A1.84,1.84,0,0,1,21.61,41h.86v-4.2A3.53,3.53,0,0,1,26,33.3H76.44A3.53,3.53,0,0,1,80,36.83V41h.63A1.85,1.85,0,0,1,82.44,42.86Z"/><circle class="cls-3" cx="36.84" cy="45.94" r="5.67"/><circle class="cls-3" cx="65.52" cy="45.94" r="5.67" transform="translate(-14.44 42.86) rotate(-32.83)"/><path class="cls-4" d="M36.88,58.1a35.84,35.84,0,0,0,13.84,3.26c7.17,0,14.83-3.26,14.83-3.26"/></g></g></svg>